<svg preserveAspectRatio="none" overflow="visible" style="display: block;" width="96" height="96" viewBox="0 0 96 96" fill="none" xmlns="http://www.w3.org/2000/svg">
<g id="pineapple--manganese 1" opacity="0.3">
<path id="Vector" opacity="0.78" d="M37.7143 27.4286L41.1429 6.85714L48 24L51.4286 6.85714L54.8571 24L61.7143 6.85714L58.2857 27.4286H37.7143Z" fill="#1F1D1A"/>
<path id="Vector_2" d="M48 82.2857C61.2548 82.2857 72 70.0055 72 54.8571C72 39.7088 61.2548 27.4286 48 27.4286C34.7452 27.4286 24 39.7088 24 54.8571C24 70.0055 34.7452 82.2857 48 82.2857Z" fill="#10B981"/>
<path id="Vector (Stroke)" d="M71 54.857C70.9999 40.1313 60.5812 28.4286 48 28.4286C35.4188 28.4286 25.0001 40.1313 25 54.857C25 69.5827 35.4187 81.2853 48 81.2853C60.5813 81.2853 71 69.5827 71 54.857ZM73 54.857C73 70.428 61.9284 83.2853 48 83.2853C34.0716 83.2853 23 70.428 23 54.857C23.0001 39.286 34.0717 26.4286 48 26.4286C61.9283 26.4286 72.9999 39.286 73 54.857Z" fill="#1F1D1A"/>
<path id="Vector (Stroke)_2" opacity="0.45" d="M67.1442 61.1871L66.8577 61.7145L66.5699 62.2405L28.8551 41.6702L29.4306 40.6155L67.1442 61.1871Z" fill="#1F1D1A"/>
<path id="Vector (Stroke)_3" opacity="0.45" d="M67.1442 74.9014L66.8577 75.4288L66.5699 75.9548L28.8551 55.3845L29.4306 54.3298L67.1442 74.9014Z" fill="#1F1D1A"/>
<path id="Vector (Stroke)_4" opacity="0.45" d="M66.8577 41.1429L67.1442 41.6702L29.4306 62.2405L29.1429 61.7145L28.8551 61.1871L66.5699 40.6155L66.8577 41.1429Z" fill="#1F1D1A"/>
<path id="Vector (Stroke)_5" opacity="0.45" d="M66.8577 54.8571L67.1442 55.3845L29.4306 75.9548L29.1429 75.4288L28.8551 74.9014L66.5699 54.3298L66.8577 54.8571Z" fill="#1F1D1A"/>
</g>
</svg>
